<svg width="40" height="44" viewBox="0 0 40 44" fill="none" xmlns="http://www.w3.org/2000/svg">
<path d="M21 21.5945V10.9385C21 10.3855 20.553 9.93848 20 9.93848C19.448 9.93848 19 10.3855 19 10.9385V22.0015C19 22.0465 19.02 22.0835 19.025 22.1265C19.036 22.2105 19.043 22.2965 19.075 22.3745C19.107 22.4545 19.159 22.5205 19.209 22.5855C19.236 22.6225 19.249 22.6635 19.281 22.6955L23.562 27.1155C23.759 27.3165 24.019 27.4195 24.281 27.4195C24.533 27.4195 24.783 27.3245 24.976 27.1385C25.372 26.7535 25.384 26.1205 24.999 25.7245L21 21.5945Z" fill="#2C332C"/>
<path d="M31.988 7.04688C28.142 3.96287 23.343 2.50588 18.432 2.90788C17.81 1.59188 16.478 0.671875 14.928 0.671875C12.786 0.671875 11.043 2.41388 11.043 4.55688C11.043 6.69788 12.786 8.44188 14.928 8.44188C16.954 8.44188 18.605 6.87588 18.778 4.89288C23.107 4.58588 27.341 5.88487 30.738 8.60787C38.123 14.5299 39.312 25.3539 33.39 32.7379C33.046 33.1709 33.115 33.7999 33.546 34.1439C33.73 34.2899 33.95 34.3629 34.171 34.3629C34.464 34.3629 34.753 34.2359 34.952 33.9899C41.563 25.7439 40.234 13.6579 31.988 7.04688Z" fill="#2C332C"/>
<path d="M25.0719 35.5587C23.0449 35.5587 21.3939 37.1247 21.2199 39.1077C16.8899 39.4137 12.6589 38.1177 9.26092 35.3927C1.87592 29.4707 0.685918 18.6447 6.60792 11.2617C6.95292 10.8297 6.88392 10.2007 6.45292 9.85568C6.02192 9.51068 5.39292 9.57868 5.04692 10.0097C-1.56408 18.2537 -0.235081 30.3417 8.00992 36.9527C11.4399 39.7027 15.6279 41.1677 19.9709 41.1677C20.4999 41.1677 21.0349 41.1347 21.5659 41.0897C22.1889 42.4077 23.5209 43.3277 25.0719 43.3277C27.2149 43.3277 28.9569 41.5857 28.9569 39.4427C28.9569 37.3027 27.2129 35.5587 25.0719 35.5587Z" fill="#2C332C"/>
</svg>
