<svg width="2198" height="2358" viewBox="0 0 2198 2358" fill="none" xmlns="http://www.w3.org/2000/svg">
<line x1="1094.49" y1="42.9062" x2="35.4611" y2="674.105" stroke="#A1BEA1" stroke-width="99.8983"/>
<line x1="1043.41" y1="43.8525" x2="2158.44" y2="669.607" stroke="#A1BEA1" stroke-width="99.8983"/>
<line x1="59.8496" y1="633.216" x2="49.9473" y2="1762.07" stroke="#A1BEA1" stroke-width="99.8983"/>
<line x1="2140.23" y1="627.453" x2="2147.72" y2="1761.3" stroke="#A1BEA1" stroke-width="99.8983"/>
<line x1="24.8491" y1="1719.87" x2="1061.29" y2="2314.27" stroke="#A1BEA1" stroke-width="99.8983"/>
<line x1="1013.74" y1="2313.38" x2="2175.15" y2="1723.66" stroke="#A1BEA1" stroke-width="99.8983"/>
<line x1="738.129" y1="224.869" x2="1846.76" y2="1062.8" stroke="#A1BEA1" stroke-width="87.411"/>
<line x1="2128.33" y1="840.516" x2="969.506" y2="1966.87" stroke="#A1BEA1" stroke-width="87.411"/>
<line x1="1211.67" y1="2199.99" x2="300.099" y2="1215.99" stroke="#A1BEA1" stroke-width="87.411"/>
<line x1="43.0836" y1="1422.22" x2="1241.86" y2="618.038" stroke="#A1BEA1" stroke-width="87.411"/>
<line x1="1029.8" y1="734.271" x2="1421.08" y2="1171.26" stroke="#A1BEA1" stroke-width="74.9237"/>
<line x1="1525.99" y1="819.375" x2="1331.19" y2="1631.05" stroke="#A1BEA1" stroke-width="87.411"/>
<line x1="1354.33" y1="1576.24" x2="608.857" y2="1524.59" stroke="#A1BEA1" stroke-width="87.411"/>
<line x1="593.816" y1="1525.78" x2="985.917" y2="791.529" stroke="#A1BEA1" stroke-width="74.9237"/>
<line x1="906.332" y1="959.796" x2="1246.62" y2="995.469" stroke="#A1BEA1" stroke-width="74.9237"/>
<line x1="735.879" y1="1232.54" x2="1142.96" y2="1574.69" stroke="#A1BEA1" stroke-width="74.9237"/>
<line x1="1020.59" y1="962.043" x2="933.181" y2="1361.15" stroke="#A1BEA1" stroke-width="74.9237"/>
<line x1="1409.08" y1="1206.71" x2="1030.86" y2="1478.93" stroke="#A1BEA1" stroke-width="74.9237"/>
<line x1="594.985" y1="326.461" x2="335.825" y2="1260.29" stroke="#A1BEA1" stroke-width="99.8983"/>
<line x1="1568.26" y1="2020.91" x2="1873.04" y2="1083.44" stroke="#A1BEA1" stroke-width="99.8983"/>
<line x1="1005.55" y1="1219.8" x2="1186.45" y2="1401.44" stroke="#A1BEA1" stroke-width="74.9237"/>
<line x1="1864.66" y1="1073.44" x2="1598.99" y2="357.021" stroke="#A1BEA1" stroke-width="99.8983"/>
<line x1="320.094" y1="1231.97" x2="557.352" y2="2028.66" stroke="#A1BEA1" stroke-width="99.8983"/>
<line x1="1288.85" y1="998.862" x2="989.152" y2="1226.13" stroke="#A1BEA1" stroke-width="74.9237"/>
</svg>
