<svg width="452" height="63" viewBox="0 0 452 63" fill="none" xmlns="http://www.w3.org/2000/svg">
<path d="M3.65309 48V17.1579H17.0033C19.7644 17.1579 22.1437 17.6131 24.1411 18.5237C26.1385 19.4049 27.6806 20.6827 28.7674 22.357C29.8542 24.0312 30.3976 26.0286 30.3976 28.3491C30.3976 30.6403 29.8542 32.623 28.7674 34.2973C27.6806 35.9422 26.1385 37.2052 24.1411 38.0865C22.1437 38.9677 19.7644 39.4083 17.0033 39.4083H7.61851L10.7908 36.28V48H3.65309ZM23.2599 48L15.5493 36.8087H23.1718L30.9704 48H23.2599ZM10.7908 37.0731L7.61851 33.7245H16.6068C18.8098 33.7245 20.4547 33.2545 21.5415 32.3146C22.6284 31.3452 23.1718 30.0234 23.1718 28.3491C23.1718 26.6455 22.6284 25.3237 21.5415 24.3837C20.4547 23.4438 18.8098 22.9738 16.6068 22.9738H7.61851L10.7908 19.5812V37.0731ZM52.7957 48.5287C50.3577 48.5287 48.096 48.1322 46.0104 47.3391C43.9543 46.546 42.1625 45.4298 40.6351 43.9905C39.137 42.5512 37.9621 40.8622 37.1103 38.9236C36.2878 36.9849 35.8766 34.8701 35.8766 32.5789C35.8766 30.2878 36.2878 28.1729 37.1103 26.2343C37.9621 24.2956 39.1517 22.6066 40.6792 21.1673C42.2066 19.728 43.9984 18.6118 46.0545 17.8188C48.1106 17.0257 50.343 16.6291 52.7516 16.6291C55.1896 16.6291 57.422 17.0257 59.4488 17.8188C61.5049 18.6118 63.282 19.728 64.7801 21.1673C66.3075 22.6066 67.4971 24.2956 68.349 26.2343C69.2008 28.1435 69.6267 30.2584 69.6267 32.5789C69.6267 34.8701 69.2008 36.9996 68.349 38.9677C67.4971 40.9063 66.3075 42.5953 64.7801 44.0346C63.282 45.4445 61.5049 46.546 59.4488 47.3391C57.422 48.1322 55.2043 48.5287 52.7957 48.5287ZM52.7516 42.4484C54.1322 42.4484 55.3953 42.2134 56.5408 41.7435C57.7158 41.2735 58.7438 40.5979 59.625 39.7167C60.5062 38.8355 61.1818 37.7927 61.6518 36.5884C62.1512 35.3841 62.4008 34.0476 62.4008 32.5789C62.4008 31.1103 62.1512 29.7738 61.6518 28.5694C61.1818 27.3651 60.5062 26.3224 59.625 25.4412C58.7732 24.56 57.7598 23.8844 56.5849 23.4144C55.4099 22.9444 54.1322 22.7094 52.7516 22.7094C51.3711 22.7094 50.0933 22.9444 48.9184 23.4144C47.7728 23.8844 46.7595 24.56 45.8783 25.4412C44.9971 26.3224 44.3068 27.3651 43.8074 28.5694C43.3375 29.7738 43.1025 31.1103 43.1025 32.5789C43.1025 34.0182 43.3375 35.3547 43.8074 36.5884C44.3068 37.7927 44.9824 38.8355 45.8342 39.7167C46.7154 40.5979 47.7435 41.2735 48.9184 41.7435C50.0933 42.2134 51.3711 42.4484 52.7516 42.4484ZM86.8873 48.5287C84.4199 48.5287 82.0554 48.2056 79.7936 47.5594C77.5318 46.8838 75.7107 46.0173 74.3301 44.9598L76.7534 39.5845C78.0752 40.5245 79.632 41.3028 81.4238 41.9197C83.245 42.5072 85.0808 42.8009 86.9313 42.8009C88.3413 42.8009 89.4722 42.6687 90.324 42.4044C91.2052 42.1106 91.8514 41.7141 92.2626 41.2147C92.6739 40.7154 92.8795 40.1426 92.8795 39.4964C92.8795 38.6739 92.5564 38.0277 91.9102 37.5577C91.2639 37.0584 90.4121 36.6618 89.3547 36.3681C88.2972 36.045 87.1223 35.7513 85.8298 35.4869C84.5668 35.1932 83.289 34.8407 81.9966 34.4295C80.7335 34.0182 79.5733 33.4895 78.5158 32.8433C77.4584 32.1971 76.5919 31.3452 75.9163 30.2878C75.2701 29.2304 74.947 27.8792 74.947 26.2343C74.947 24.4719 75.4169 22.871 76.3569 21.4317C77.3262 19.963 78.7655 18.8028 80.6748 17.9509C82.6134 17.0697 85.0368 16.6291 87.9447 16.6291C89.8834 16.6291 91.7927 16.8641 93.6726 17.3341C95.5525 17.7747 97.2121 18.4503 98.6514 19.3609L96.4484 24.7803C95.0091 23.9578 93.5698 23.3557 92.1305 22.9738C90.6912 22.5626 89.2812 22.357 87.9007 22.357C86.5201 22.357 85.3892 22.5185 84.508 22.8416C83.6268 23.1647 82.9953 23.5906 82.6134 24.1194C82.2316 24.6187 82.0407 25.2062 82.0407 25.8818C82.0407 26.6749 82.3638 27.3211 83.01 27.8204C83.6562 28.2904 84.508 28.6723 85.5655 28.966C86.6229 29.2597 87.7832 29.5535 89.0462 29.8472C90.3387 30.1409 91.6164 30.4787 92.8795 30.8606C94.1719 31.2424 95.3468 31.7565 96.4043 32.4027C97.4617 33.0489 98.3136 33.9007 98.9598 34.9582C99.6354 36.0156 99.9732 37.3521 99.9732 38.9677C99.9732 40.7007 99.4885 42.2869 98.5192 43.7262C97.5499 45.1655 96.0959 46.3257 94.1572 47.2069C92.2479 48.0881 89.8246 48.5287 86.8873 48.5287ZM113.178 29.5828H128.026V35.1344H113.178V29.5828ZM113.707 42.2722H130.493V48H106.613V17.1579H129.921V22.8857H113.707V42.2722Z" fill="#2C332C"/>
<path d="M218.657 48V17.1579H224.561L237.691 38.9236H234.563L247.472 17.1579H253.332L253.42 48H246.723L246.679 27.4239H247.913L237.603 44.7395H234.386L223.856 27.4239H225.354V48H218.657ZM258.447 48L272.194 17.1579H279.243L293.034 48H285.544L274.264 20.7708H277.084L265.761 48H258.447ZM265.32 41.391L267.215 35.9716H283.076L285.015 41.391H265.32ZM297.996 48V17.1579H311.347C314.108 17.1579 316.487 17.6131 318.484 18.5237C320.482 19.4049 322.024 20.6827 323.111 22.357C324.197 24.0312 324.741 26.0286 324.741 28.3491C324.741 30.6403 324.197 32.623 323.111 34.2973C322.024 35.9422 320.482 37.2052 318.484 38.0865C316.487 38.9677 314.108 39.4083 311.347 39.4083H301.962L305.134 36.28V48H297.996ZM317.603 48L309.893 36.8087H317.515L325.314 48H317.603ZM305.134 37.0731L301.962 33.7245H310.95C313.153 33.7245 314.798 33.2545 315.885 32.3146C316.972 31.3452 317.515 30.0234 317.515 28.3491C317.515 26.6455 316.972 25.3237 315.885 24.3837C314.798 23.4438 313.153 22.9738 310.95 22.9738H301.962L305.134 19.5812V37.0731ZM338.547 40.9504L338.151 32.7111L352.911 17.1579H360.842L347.536 31.4774L343.57 35.7072L338.547 40.9504ZM332.158 48V17.1579H339.252V48H332.158ZM353.263 48L342.292 34.5616L346.963 29.4947L361.591 48H353.263ZM373.101 29.5828H387.949V35.1344H373.101V29.5828ZM373.629 42.2722H390.416V48H366.536V17.1579H389.844V22.8857H373.629V42.2722ZM404.247 48V22.9738H394.377V17.1579H421.254V22.9738H411.385V48H404.247ZM436.776 48.5287C434.308 48.5287 431.944 48.2056 429.682 47.5594C427.42 46.8838 425.599 46.0173 424.219 44.9598L426.642 39.5845C427.964 40.5245 429.52 41.3028 431.312 41.9197C433.133 42.5072 434.969 42.8009 436.82 42.8009C438.23 42.8009 439.361 42.6687 440.212 42.4044C441.094 42.1106 441.74 41.7141 442.151 41.2147C442.562 40.7154 442.768 40.1426 442.768 39.4964C442.768 38.6739 442.445 38.0277 441.799 37.5577C441.152 37.0584 440.3 36.6618 439.243 36.3681C438.186 36.045 437.011 35.7513 435.718 35.4869C434.455 35.1932 433.177 34.8407 431.885 34.4295C430.622 34.0182 429.462 33.4895 428.404 32.8433C427.347 32.1971 426.48 31.3452 425.805 30.2878C425.158 29.2304 424.835 27.8792 424.835 26.2343C424.835 24.4719 425.305 22.871 426.245 21.4317C427.215 19.963 428.654 18.8028 430.563 17.9509C432.502 17.0697 434.925 16.6291 437.833 16.6291C439.772 16.6291 441.681 16.8641 443.561 17.3341C445.441 17.7747 447.1 18.4503 448.54 19.3609L446.337 24.7803C444.897 23.9578 443.458 23.3557 442.019 22.9738C440.58 22.5626 439.17 22.357 437.789 22.357C436.408 22.357 435.278 22.5185 434.396 22.8416C433.515 23.1647 432.884 23.5906 432.502 24.1194C432.12 24.6187 431.929 25.2062 431.929 25.8818C431.929 26.6749 432.252 27.3211 432.898 27.8204C433.545 28.2904 434.396 28.6723 435.454 28.966C436.511 29.2597 437.672 29.5535 438.935 29.8472C440.227 30.1409 441.505 30.4787 442.768 30.8606C444.06 31.2424 445.235 31.7565 446.293 32.4027C447.35 33.0489 448.202 33.9007 448.848 34.9582C449.524 36.0156 449.862 37.3521 449.862 38.9677C449.862 40.7007 449.377 42.2869 448.408 43.7262C447.438 45.1655 445.984 46.3257 444.046 47.2069C442.136 48.0881 439.713 48.5287 436.776 48.5287Z" fill="#2C332C"/>
<line x1="175.125" y1="1.14174" x2="146.944" y2="17.9381" stroke="#A1BEA1" stroke-width="2.65831"/>
<line x1="173.765" y1="1.16707" x2="203.436" y2="17.8185" stroke="#A1BEA1" stroke-width="2.65831"/>
<line x1="147.593" y1="16.85" x2="147.329" y2="46.889" stroke="#A1BEA1" stroke-width="2.65831"/>
<line x1="202.952" y1="16.6968" x2="203.151" y2="46.8686" stroke="#A1BEA1" stroke-width="2.65831"/>
<line x1="146.661" y1="45.7659" x2="174.241" y2="61.5829" stroke="#A1BEA1" stroke-width="2.65831"/>
<line x1="172.976" y1="61.559" x2="203.881" y2="45.8665" stroke="#A1BEA1" stroke-width="2.65831"/>
<line x1="165.642" y1="5.98333" x2="195.143" y2="28.2809" stroke="#A1BEA1" stroke-width="2.32602"/>
<line x1="202.636" y1="22.3667" x2="171.799" y2="52.3392" stroke="#A1BEA1" stroke-width="2.32602"/>
<line x1="178.244" y1="58.5418" x2="153.986" y2="32.3575" stroke="#A1BEA1" stroke-width="2.32602"/>
<line x1="147.147" y1="37.8452" x2="179.046" y2="16.4458" stroke="#A1BEA1" stroke-width="2.32602"/>
<line x1="173.403" y1="19.5386" x2="183.815" y2="31.167" stroke="#A1BEA1" stroke-width="1.99373"/>
<line x1="186.606" y1="21.8041" x2="181.423" y2="43.4029" stroke="#A1BEA1" stroke-width="2.32602"/>
<line x1="182.039" y1="41.9434" x2="162.202" y2="40.5692" stroke="#A1BEA1" stroke-width="2.32602"/>
<line x1="161.802" y1="40.6012" x2="172.236" y2="21.0626" stroke="#A1BEA1" stroke-width="1.99373"/>
<line x1="170.118" y1="25.5403" x2="179.173" y2="26.4896" stroke="#A1BEA1" stroke-width="1.99373"/>
<line x1="165.582" y1="32.7979" x2="176.415" y2="41.9026" stroke="#A1BEA1" stroke-width="1.99373"/>
<line x1="173.158" y1="25.6" x2="170.832" y2="36.2204" stroke="#A1BEA1" stroke-width="1.99373"/>
<line x1="183.496" y1="32.1109" x2="173.432" y2="39.3548" stroke="#A1BEA1" stroke-width="1.99373"/>
<line x1="161.833" y1="8.68747" x2="154.937" y2="33.5368" stroke="#A1BEA1" stroke-width="2.65831"/>
<line x1="187.732" y1="53.7761" x2="195.842" y2="28.8299" stroke="#A1BEA1" stroke-width="2.65831"/>
<line x1="172.758" y1="32.4592" x2="177.572" y2="37.2928" stroke="#A1BEA1" stroke-width="1.99373"/>
<line x1="195.619" y1="28.5642" x2="188.55" y2="9.50014" stroke="#A1BEA1" stroke-width="2.65831"/>
<line x1="154.518" y1="32.7832" x2="160.831" y2="53.9833" stroke="#A1BEA1" stroke-width="2.65831"/>
<line x1="180.297" y1="26.5799" x2="172.322" y2="32.6276" stroke="#A1BEA1" stroke-width="1.99373"/>
</svg>
