<svg width="100" height="100" viewBox="0 0 100 100" fill="none" xmlns="http://www.w3.org/2000/svg">
<path fill-rule="evenodd" clip-rule="evenodd" d="M55.1251 98.0663C54.2462 98.0663 53.6017 97.3631 53.6017 96.5429V93.8476C53.6017 92.9687 54.2462 92.3242 55.1251 92.3242C56.004 92.3242 56.7071 92.9687 56.7071 93.8476V96.5429C56.7071 97.3632 56.004 98.0663 55.1251 98.0663ZM44.8161 51.2573C44.6989 51.2573 44.5817 51.1987 44.4059 51.1987C44.0544 51.0815 43.7028 50.7885 43.4684 50.437C41.5348 47.0386 38.9567 45.1636 36.3786 45.1636C33.7419 45.1636 31.2224 47.0386 29.2302 50.437C28.9958 50.7885 28.7029 51.0815 28.2927 51.1987C27.8826 51.3159 27.4724 51.2573 27.1208 51.0229L19.0349 46.394C18.2732 45.9252 18.0388 44.9878 18.449 44.226C20.4412 40.8276 20.7928 37.7221 19.5037 35.4369C18.156 33.1517 15.2849 31.9213 11.3592 31.9213C10.4803 31.9213 9.77718 31.2182 9.77718 30.3393V21.0229C9.77718 20.2026 10.4803 19.4995 11.3592 19.4995C15.285 19.4995 18.2147 18.2104 19.5037 15.9839C20.7928 13.6987 20.4412 10.5347 18.449 7.13619C18.0388 6.37447 18.2732 5.43699 19.0349 5.02679L27.1208 0.339292C27.4724 0.163512 27.8825 0.104912 28.2927 0.222102C28.7029 0.280696 28.9958 0.573662 29.2302 0.925222C31.2224 4.32362 33.7419 6.19862 36.3786 6.19862C38.9567 6.19862 41.5348 4.32362 43.4684 0.925222C43.7028 0.573662 44.0544 0.280692 44.4059 0.222102C44.8161 0.104912 45.2262 0.163508 45.6364 0.339292L53.6637 5.02679C54.4254 5.43695 54.6598 6.37449 54.2497 7.13619C52.2575 10.5346 51.9059 13.6987 53.195 15.9253C54.5427 18.2105 57.4138 19.4995 61.3395 19.4995C62.2184 19.4995 62.9215 20.2026 62.9215 21.0229V30.3393C62.9215 31.2182 62.2183 31.9213 61.3395 31.9213C57.2965 31.9213 54.3083 33.0932 53.0778 35.3197C51.7887 37.5463 52.1989 40.7103 54.2497 44.2259C54.6598 44.9876 54.4254 45.9251 53.6637 46.3939L45.6364 51.0228C45.402 51.14 45.1091 51.2573 44.8161 51.2573ZM21.9101 44.4018L27.3593 47.5659C29.8202 43.9917 32.9843 42.0581 36.3827 42.0581C39.7225 42.0581 42.8866 43.9917 45.3475 47.5659L50.7967 44.4018C48.8631 40.4174 48.6873 36.6674 50.3279 33.7998C52.0271 30.8701 55.367 29.1709 59.8201 28.8193V22.5498C55.4842 22.1982 52.2029 20.4404 50.5037 17.5107C48.8045 14.581 48.9217 10.8896 50.7967 6.96766L45.3475 3.80356C42.8866 7.37776 39.7225 9.36997 36.3827 9.36997C32.9843 9.36997 29.8202 7.37776 27.3593 3.80356L21.9101 6.96766C23.7851 10.8935 23.9023 14.5849 22.2031 17.5107C20.5039 20.4404 17.2226 22.1982 12.8867 22.5498V28.8193C17.2226 29.1708 20.5039 30.9287 22.2031 33.8584C23.9023 36.7881 23.7851 40.4799 21.9101 44.4018ZM36.3201 37.2534C34.3279 37.2534 32.3357 36.726 30.5779 35.73C27.8826 34.148 25.949 31.687 25.1873 28.6988C24.367 25.7105 24.7771 22.605 26.3592 19.9097C28.41 16.3355 32.2186 14.1089 36.3752 14.1089C38.3674 14.1089 40.3596 14.6362 42.1174 15.6909C47.6838 18.855 49.5588 25.9409 46.3947 31.4489C44.2853 35.0231 40.4767 37.2497 36.3207 37.2497L36.3201 37.2534ZM36.3787 17.2184C33.3318 17.2184 30.5193 18.859 29.0545 21.4957C27.8826 23.4293 27.5897 25.7145 28.1756 27.8824C28.7615 30.0504 30.1678 31.8668 32.1014 32.9801C33.3905 33.7418 34.8553 34.152 36.3202 34.152C39.3671 34.152 42.1796 32.5114 43.6444 29.9332C45.9882 25.8902 44.5819 20.734 40.5975 18.3942C39.3084 17.6324 37.8436 17.2223 36.3787 17.2223L36.3787 17.2184ZM81.8987 84.5304C81.3713 84.5304 80.844 84.2374 80.551 83.7101C78.5588 80.3117 76.0393 78.4367 73.4026 78.4367C70.7659 78.4367 68.2464 80.3117 66.2542 83.7101C66.0784 84.1202 65.7268 84.3546 65.3167 84.4718C64.9065 84.589 64.4964 84.5304 64.1448 84.296L56.1175 79.6671C55.3558 79.1983 55.0628 78.2609 55.5315 77.4991C57.4651 74.1007 57.8753 70.9952 56.5276 68.71C55.2385 66.4248 52.3674 65.1944 48.3831 65.1944C47.5628 65.1944 46.8597 64.4913 46.8597 63.6124V54.296C46.8597 53.4757 47.5628 52.7726 48.3831 52.7726C52.3675 52.7726 55.2386 51.5421 56.5862 49.257C57.8753 46.9718 57.5237 43.8664 55.5315 40.4093C55.1214 39.6476 55.3557 38.7101 56.1175 38.2999L64.1448 33.6124C64.9065 33.2022 65.844 33.4366 66.2542 34.1983C68.2464 37.5967 70.7659 39.4717 73.4026 39.4717C76.0393 39.4717 78.5588 37.5967 80.551 34.1983C80.9611 33.4366 81.8987 33.2022 82.6604 33.6124L90.7463 38.2999C91.4494 38.7101 91.7424 39.6476 91.2736 40.4093C89.34 43.8077 88.9298 46.9718 90.2775 49.257C91.5666 51.4836 94.4963 52.7726 98.422 52.7726C98.8322 52.7726 99.2423 52.9484 99.5353 53.2413C99.8283 53.5343 100.004 53.8859 100.004 54.296V63.6124C100.004 64.4914 99.3009 65.1945 98.4221 65.1945C94.4377 65.1945 91.5666 66.4249 90.2776 68.71C88.9299 70.9366 89.3401 74.1006 91.2737 77.4991C91.7424 78.2609 91.4494 79.1983 90.7463 79.6671L82.6604 84.296C82.426 84.4718 82.1331 84.5304 81.8987 84.5304ZM73.4026 75.3312C76.801 75.3312 79.9651 77.2648 82.426 80.839L87.8752 77.6749C86.0002 73.7491 85.883 70.0577 87.5236 67.1319C89.2228 64.2022 92.5041 62.4444 96.84 62.0928V55.8233C92.5041 55.4717 89.2814 53.7139 87.5822 50.7842C85.883 47.8545 86.0002 44.1631 87.8752 40.2412L82.426 37.0771C79.9651 40.7099 76.801 42.6435 73.4026 42.6435C70.0042 42.6435 66.8401 40.7099 64.3792 37.0771L58.9886 40.2412C60.8636 44.167 60.9808 47.8584 59.2816 50.8432C57.5824 53.7729 54.3011 55.4721 49.9652 55.8237V62.0932C54.3011 62.4447 57.5824 64.2026 59.2816 67.1323C60.9222 70.062 60.805 73.812 58.93 77.6753L64.3792 80.8394C66.8401 77.2652 70.0042 75.3312 73.4026 75.3312ZM73.4026 70.5265C71.3518 70.5265 69.3596 69.9991 67.6018 69.0031C64.9651 67.4211 63.0315 64.9601 62.2112 61.9719C61.4495 58.9836 61.8596 55.8781 63.3831 53.1828C65.4339 49.6086 69.3011 47.382 73.3991 47.382C75.4499 47.382 77.4421 47.9093 79.1999 48.964C81.8952 50.4874 83.7702 53.007 84.5905 55.9952C85.3522 58.9835 84.942 62.089 83.4186 64.7843C81.3678 68.2999 77.5006 70.5265 73.4026 70.5265ZM73.4026 50.5495C70.4143 50.5495 67.6018 52.1315 66.0784 54.7683C64.9651 56.7019 64.6722 58.9871 65.2581 61.155C65.844 63.323 67.2503 65.1394 69.1839 66.3112C70.473 67.0143 71.9378 67.4245 73.4027 67.4245C76.391 67.4245 79.2035 65.7839 80.7269 63.2057C81.8402 61.2721 82.1331 58.9869 81.5472 56.7604C80.9612 54.5924 79.555 52.776 77.6214 51.6627C76.3323 50.9009 74.8675 50.5495 73.4026 50.5495ZM35.0316 99.8195C34.9144 99.8195 34.7972 99.8195 34.6214 99.7609C34.2699 99.6437 33.9183 99.4093 33.6839 99.0578C31.7503 95.6008 29.1722 93.7258 26.5941 93.7258C23.9574 93.7258 21.4379 95.6008 19.4457 99.0578C19.2113 99.4093 18.9184 99.6437 18.5082 99.7609C18.0981 99.8781 17.6879 99.8195 17.3363 99.5851L9.25042 94.9562C8.4887 94.546 8.25433 93.55 8.66448 92.8468C10.6567 89.3898 11.0083 86.2843 9.71918 83.9991C8.37148 81.7139 5.50038 80.4835 1.57468 80.4835C0.695766 80.4835 -0.00732422 79.7804 -0.00732422 78.9015V69.6437C-0.00732422 68.7648 0.695796 68.0617 1.57468 68.0617C5.50048 68.0617 8.43018 66.8312 9.71918 64.5461C11.0082 62.261 10.6567 59.1555 8.66448 55.6984C8.25432 54.9953 8.4887 53.9992 9.25042 53.589L17.3363 48.9601C18.0394 48.4913 19.0355 48.7843 19.4457 49.4874C21.4379 52.9444 23.9574 54.8194 26.5941 54.8194C29.1722 54.8194 31.7503 52.9444 33.6839 49.4874C34.1527 48.7843 35.0901 48.4913 35.8519 48.9601L43.8792 53.589C44.2308 53.8234 44.5237 54.1163 44.5823 54.5265C44.6995 54.9366 44.6409 55.3468 44.4651 55.6984C42.4729 59.1554 42.1213 62.2609 43.4104 64.5461C44.7581 66.8313 47.6292 68.0617 51.5549 68.0617C52.4339 68.0617 53.1369 68.7648 53.1369 69.6437V78.9015C53.1369 79.7804 52.4338 80.4835 51.5549 80.4835C47.6291 80.4835 44.6994 81.714 43.4104 83.9991C42.1213 86.2843 42.4729 89.3897 44.4651 92.8468C44.8753 93.5499 44.6409 94.546 43.8792 94.9562L35.8519 99.5851C35.6175 99.7609 35.3245 99.8195 35.0316 99.8195ZM26.5941 90.6203C29.9339 90.6203 33.098 92.5539 35.5589 96.1281L41.0081 93.0226C39.1331 89.0968 39.0159 85.3468 40.7151 82.4206C42.4143 79.4909 45.6956 77.7331 50.0315 77.4401V71.112C45.6956 70.819 42.4143 69.0612 40.7151 66.1315C39.0159 63.1432 39.1331 59.4518 41.0081 55.5295L35.5589 52.424C33.098 55.9982 29.9339 57.9318 26.5941 57.9318C23.1957 57.9318 20.0316 55.9982 17.5707 52.424L12.1215 55.5295C13.9965 59.4553 14.1137 63.2053 12.4144 66.1315C10.7152 69.0612 7.49255 70.819 3.09805 71.112V77.4401C7.43395 77.733 10.7152 79.4909 12.4144 82.4206C14.1136 85.4089 13.9964 89.1003 12.1215 93.0226L17.5707 96.1281C20.0316 92.5539 23.1957 90.6203 26.5941 90.6203ZM26.5355 85.8742C24.5433 85.8742 22.5511 85.2882 20.7933 84.2922C18.098 82.7688 16.1644 80.2492 15.4027 77.261C14.5824 74.2727 14.9925 71.1672 16.5746 68.4719C18.6254 64.8977 22.434 62.7297 26.5906 62.7297C28.5828 62.7297 30.575 63.257 32.3328 64.2531C35.0281 65.7765 36.9617 68.2961 37.7234 71.2843C38.5437 74.2726 38.1335 77.3781 36.6101 80.0734C34.5007 83.6476 30.6915 85.8742 26.5355 85.8742ZM26.5941 65.8392C23.5472 65.8392 20.7347 67.4798 19.2699 70.058C18.098 71.9916 17.8051 74.2768 18.391 76.4447C18.9769 78.6713 20.3832 80.4877 22.3754 81.6009C23.6059 82.3626 25.0707 82.7142 26.5356 82.7142C29.5825 82.7142 32.395 81.1322 33.8598 78.4954C35.0317 76.5618 35.3246 74.2766 34.7387 72.1087C34.1527 69.9407 32.7465 68.0657 30.8129 66.9525C29.5238 66.2493 28.059 65.8392 26.5941 65.8392ZM85.5281 19.8512H82.3054C81.4851 19.8512 80.782 19.148 80.782 18.2692C80.782 17.3903 81.4851 16.6872 82.3054 16.6872H85.5281C86.407 16.6872 87.1101 17.3903 87.1101 18.2692C87.1101 19.1481 86.407 19.8512 85.5281 19.8512ZM73.6961 19.8512H70.532C69.6531 19.8512 68.95 19.148 68.95 18.2692C68.95 17.3903 69.6531 16.6872 70.532 16.6872H73.6961C74.575 16.6872 75.2781 17.3903 75.2781 18.2692C75.2781 19.1481 74.575 19.8512 73.6961 19.8512ZM78.032 15.5153C77.1531 15.5153 76.45 14.8121 76.45 13.9333V10.7692C76.45 9.89026 77.1531 9.18717 78.032 9.18717C78.9109 9.18717 79.5554 9.89029 79.5554 10.7692V13.9333C79.5554 14.8122 78.9108 15.5153 78.032 15.5153ZM78.032 27.3473C77.1531 27.3473 76.45 26.6441 76.45 25.7653V22.6012C76.45 21.7223 77.1531 21.0192 78.032 21.0192C78.9109 21.0192 79.5554 21.7223 79.5554 22.6012V25.7653C79.5554 26.6442 78.9108 27.3473 78.032 27.3473ZM61.395 91.8473H58.6997C57.8794 91.8473 57.1763 91.1441 57.1763 90.2653C57.1763 89.3864 57.8794 88.6833 58.6997 88.6833H61.395C62.2739 88.6833 62.977 89.3864 62.977 90.2653C62.977 91.1441 62.2739 91.8473 61.395 91.8473ZM51.5512 91.8473H48.8559C48.0356 91.8473 47.3325 91.1441 47.3325 90.2653C47.3325 89.3864 48.0356 88.6833 48.8559 88.6833H51.5512C52.4301 88.6833 53.1332 89.3864 53.1332 90.2653C53.1332 91.1441 52.4301 91.8473 51.5512 91.8473ZM55.1254 88.2145C54.2465 88.2145 53.602 87.5114 53.602 86.6911V83.9958C53.602 83.1169 54.2465 82.4724 55.1254 82.4724C56.0042 82.4724 56.7074 83.1169 56.7074 83.9958V86.6911C56.7074 87.5114 56.0043 88.2145 55.1254 88.2145Z" fill="#2C332C"/>
</svg>
