<svg width="94" height="94" viewBox="0 0 94 94" fill="none" xmlns="http://www.w3.org/2000/svg">
<path d="M30.785 65.145C35.453 69.0044 38.2225 74.6645 38.5584 80.809H37.9959C37.1326 80.809 36.4334 81.5082 36.4334 82.3715V87.4574C36.4334 88.3206 37.1326 89.0199 37.9959 89.0199H41.0975L41.1014 92.3129C41.1014 93.1761 41.8006 93.8754 42.6639 93.8754H51.3436C52.2068 93.8754 52.9061 93.1761 52.9061 92.3129V89.0199H56.0077C56.8709 89.0199 57.5702 88.3206 57.5702 87.4574V82.3715C57.5702 81.5082 56.8709 80.809 56.0077 80.809H55.4491C55.8085 74.8012 58.7225 69.024 63.621 64.805C69.6718 59.5941 72.8749 52.024 72.4101 44.039C71.6679 31.223 61.0431 20.719 48.2151 20.117C41.1995 19.8123 34.5121 22.2811 29.4341 27.1287C24.3482 31.9803 21.5513 38.5197 21.5513 45.5427C21.5474 53.1482 24.9139 60.293 30.785 65.145ZM49.777 90.75H44.2223V89.0195H49.777V90.75ZM54.4411 85.8945H39.5581V83.9336H54.4411V85.8945ZM48.6559 61.1135C49.1871 61.1525 49.7184 61.176 50.2418 61.1799C49.6089 65.7307 48.9606 71.2539 48.484 75.5039C48.7261 71.3359 48.9137 65.9498 48.6559 61.1135ZM31.5899 29.3945C36.0469 25.1406 41.8909 22.957 48.0699 23.2422C59.3199 23.7656 68.6399 32.9805 69.2889 44.2192C69.6951 51.2231 66.8827 57.8642 61.578 62.4342C55.9842 67.2545 52.6444 73.8912 52.2811 80.8092H51.0428C51.4529 77.0045 52.4842 67.6452 53.4334 60.9262C54.6443 60.7152 55.7654 60.3793 56.7342 59.9106C58.5819 59.0199 59.8006 57.6801 60.2537 56.0434C60.8044 54.0668 60.3279 52.1059 58.9842 50.8012C57.8592 49.7035 56.3358 49.309 54.9139 49.7504C53.867 50.0707 52.0037 51.1488 51.2772 54.7113C51.0975 55.598 50.9022 56.7386 50.699 58.0433C49.949 58.0511 49.1873 58.0237 48.4138 57.9417C48.117 55.1253 47.617 52.6878 46.8161 51.0589C45.2067 47.7855 43.027 47.7777 42.1755 47.9261C40.1638 48.2738 38.488 50.4339 38.1833 53.0667C37.8552 55.9222 39.2771 58.3831 41.8942 59.4886C43.0504 59.9769 44.2692 60.3636 45.5075 60.637C45.906 67.3792 45.3943 75.969 44.9607 80.809H41.7185C41.3825 73.7231 38.1638 67.192 32.7732 62.735C27.6248 58.4772 24.6716 52.215 24.6716 45.544C24.6716 39.3878 27.1286 33.653 31.5896 29.396L31.5899 29.3945ZM53.9299 57.6245C54.0744 56.7417 54.2111 55.9683 54.34 55.3315C54.6838 53.6518 55.3361 52.8862 55.8361 52.7338C55.9142 52.7064 55.9924 52.6986 56.0666 52.6986C56.4103 52.6986 56.6877 52.9252 56.8049 53.0384C57.3166 53.5384 57.4806 54.3471 57.2424 55.2065C57.0314 55.9643 56.4025 56.6009 55.3752 57.097C54.9377 57.308 54.4533 57.4838 53.9299 57.6245ZM45.2151 57.3393C44.4885 57.1362 43.7854 56.894 43.1135 56.6127C41.2932 55.8432 41.1916 54.2846 41.2893 53.4252C41.4455 52.0736 42.2346 51.0893 42.7073 51.0072C42.719 51.0072 42.7346 51.0033 42.7463 51.0033C43.0237 51.0033 43.5198 51.4369 44.0119 52.4369C44.5705 53.5736 44.9573 55.2847 45.2151 57.3393Z" fill="#2C332C"/>
<path d="M45.438 1.6875V10.9531C45.438 11.8164 46.1372 12.5156 47.0005 12.5156C47.8638 12.5156 48.563 11.8164 48.563 10.9531V1.6875C48.563 0.82422 47.8638 0.125 47.0005 0.125C46.1372 0.125 45.438 0.82422 45.438 1.6875Z" fill="#2C332C"/>
<path d="M92.3121 45.4385H81.9331C81.0698 45.4385 80.3706 46.1377 80.3706 47.001C80.3706 47.8643 81.0698 48.5635 81.9331 48.5635H92.3121C93.1754 48.5635 93.8746 47.8643 93.8746 47.001C93.8746 46.1377 93.1754 45.4385 92.3121 45.4385Z" fill="#2C332C"/>
<path d="M1.6875 48.5615H12.0665C12.9298 48.5615 13.629 47.8623 13.629 46.999C13.629 46.1357 12.9298 45.4365 12.0665 45.4365H1.6875C0.82422 45.4365 0.125 46.1357 0.125 46.999C0.125 47.8623 0.82422 48.5615 1.6875 48.5615Z" fill="#2C332C"/>
<path d="M80.1449 13.8555C79.5356 13.2461 78.5472 13.2461 77.934 13.8555L70.5942 21.1953C69.9849 21.8047 69.9849 22.793 70.5942 23.4062C70.8989 23.7109 71.2974 23.8632 71.6997 23.8632C72.0982 23.8632 72.5005 23.7109 72.8052 23.4062L80.145 16.0664C80.7583 15.4531 80.7582 14.4648 80.1449 13.8555Z" fill="#2C332C"/>
<path d="M13.8549 80.1454C14.1596 80.4501 14.558 80.6025 14.9604 80.6025C15.3588 80.6025 15.7612 80.4501 16.0659 80.1454L23.4057 72.8056C24.0151 72.1962 24.0151 71.2079 23.4057 70.5947C22.7963 69.9854 21.808 69.9854 21.1948 70.5947L13.855 77.9345C13.2417 78.5478 13.2416 79.5361 13.8549 80.1454Z" fill="#2C332C"/>
<path d="M21.1949 23.4023C21.4996 23.7069 21.8981 23.8593 22.3004 23.8593C22.6989 23.8593 23.1012 23.7069 23.4059 23.4023C24.0153 22.7929 24.0153 21.8046 23.4059 21.1914L16.0661 13.8516C15.4567 13.2422 14.4684 13.2422 13.8552 13.8516C13.2458 14.4609 13.2458 15.4493 13.8552 16.0625L21.1949 23.4023Z" fill="#2C332C"/>
<path d="M70.5979 70.5977C69.9885 71.207 69.9885 72.1954 70.5979 72.8086L77.9377 80.1484C78.2424 80.453 78.6408 80.6054 79.0432 80.6054C79.4416 80.6054 79.844 80.453 80.1487 80.1484C80.7581 79.539 80.7581 78.5507 80.1487 77.9375L72.8089 70.5977C72.1956 69.9844 71.2072 69.9844 70.5979 70.5977Z" fill="#2C332C"/>
<path d="M46.3981 35.4445L48.859 34.8742L46.8512 41.8625C46.6129 42.6906 47.0934 43.5578 47.9215 43.7961C48.066 43.8352 48.2106 43.8586 48.3551 43.8586C49.0348 43.8586 49.6598 43.4133 49.8551 42.7258L52.5973 33.1828C52.7496 32.6516 52.609 32.0773 52.2301 31.675C51.8473 31.2727 51.2848 31.1047 50.7457 31.2297L48.5035 31.7492L49.4684 29.1008C49.7652 28.2883 49.3473 27.3938 48.5348 27.0969C47.7262 26.804 46.8278 27.218 46.5309 28.0305L44.5778 33.3899C44.3825 33.929 44.4957 34.5305 44.8746 34.9602C45.2575 35.3899 45.8435 35.5773 46.3981 35.4445Z" fill="#2C332C"/>
</svg>
