<svg width="84" height="98" viewBox="0 0 84 98" fill="none" xmlns="http://www.w3.org/2000/svg">
<path d="M42 35.7344C39.5977 35.7344 37.5273 37.1172 36.5781 39.4649L31.8438 39.5C30.9805 39.5078 30.2812 40.1993 30.2812 41.0625C30.2812 41.9258 30.9805 42.625 31.8438 42.625H37.9335C38.7968 42.625 39.496 41.9258 39.496 41.0625C39.496 39.8906 40.5391 38.8594 42 38.8594C43.4609 38.8594 44.5038 39.8906 44.5038 41.0625C44.5038 41.9258 45.2031 42.625 46.0663 42.625H52.1562C53.0194 42.625 53.7187 41.9258 53.7187 41.0625C53.7187 40.1993 53.0194 39.5039 52.1562 39.5L47.3788 39.4766C46.6406 37.1875 44.4062 35.7344 42 35.7344Z" fill="#2C332C"/>
<path d="M38.113 0.718821C37.6951 0.714915 37.2927 0.875071 36.9958 1.17194C36.699 1.46491 36.531 1.86335 36.531 2.28134V3.47664L35.9138 4.71104H35.9177C35.8083 4.92588 35.7537 5.16416 35.7498 5.40635V6.96885C35.7537 7.21104 35.8084 7.44932 35.9177 7.66416L36.5349 8.89856V16.8517C36.5349 19.4494 36.113 22.0353 35.2849 24.5001L30.6951 38.1601C29.0506 43.0585 28.1287 46.1367 28.1013 51.4611L28.0974 51.4572C28.0974 51.8712 28.2576 52.2697 28.5505 52.5627C28.8435 52.8595 29.238 53.0236 29.656 53.0275C30.5154 53.0314 31.2146 52.3361 31.2224 51.4767C31.2459 46.4923 32.0232 44.0236 33.656 39.1527L38.2458 25.4927C39.1794 22.7075 39.656 19.7857 39.656 16.8521V8.53179C39.656 8.2896 39.6013 8.05132 39.492 7.83648L38.8748 6.60208V5.77396L39.492 4.53956C39.5974 4.32862 39.6521 4.09815 39.6521 3.86378L41.9841 3.88722H42.0193L44.3513 3.86378C44.3513 4.09816 44.406 4.32862 44.5114 4.53956L45.1286 5.77396V6.60208L44.5114 7.83648C44.4021 8.05132 44.3474 8.2896 44.3435 8.53179V16.8521C44.3435 19.7896 44.8161 22.7115 45.7537 25.4927L50.3435 39.1527C51.9802 44.0238 52.7537 46.4925 52.7771 51.4767H52.781C52.7888 52.3361 53.488 53.0314 54.3474 53.0275C54.7614 53.0236 55.1599 52.8595 55.4529 52.5627C55.7419 52.2697 55.906 51.8712 55.906 51.4572C55.8826 46.1369 54.9568 43.0549 53.3122 38.1562L48.7224 24.4962C47.8943 22.0314 47.4724 19.4493 47.4724 16.8478V8.89465L48.0896 7.66025L48.0857 7.66416C48.1951 7.44932 48.2497 7.21104 48.2497 6.96885V5.40635C48.2497 5.16416 48.1951 4.92588 48.0857 4.71104L47.4685 3.47664V2.28134C47.4685 1.86337 47.3044 1.46493 47.0076 1.17194C46.7107 0.87506 46.3083 0.71491 45.8904 0.71882L42.0037 0.761789L38.113 0.718821Z" fill="#2C332C"/>
<path d="M11.531 56.6562C8.96071 56.6562 6.84351 58.7734 6.84351 61.3438C6.84351 63.9141 8.96071 66.0312 11.531 66.0312C14.1013 66.0312 16.2185 63.9141 16.2185 61.3438C16.2185 58.7734 14.1013 56.6562 11.531 56.6562ZM11.531 59.7812C12.4138 59.7812 13.0935 60.4609 13.0935 61.3438C13.0935 62.2266 12.4138 62.9062 11.531 62.9062C10.6482 62.9062 9.96851 62.2266 9.96851 61.3438C9.96851 60.4609 10.6482 59.7812 11.531 59.7812Z" fill="#2C332C"/>
<path d="M72.469 56.6562C75.0393 56.6562 77.1565 58.7734 77.1565 61.3438C77.1565 63.9141 75.0393 66.0312 72.469 66.0312C69.8987 66.0312 67.7815 63.9141 67.7815 61.3438C67.7815 58.7734 69.8987 56.6562 72.469 56.6562ZM72.469 59.7812C71.5862 59.7812 70.9065 60.4609 70.9065 61.3438C70.9065 62.2266 71.5862 62.9062 72.469 62.9062C73.3518 62.9062 74.0315 62.2266 74.0315 61.3438C74.0315 60.4609 73.3518 59.7812 72.469 59.7812Z" fill="#2C332C"/>
<path d="M11.531 81.6562C8.96071 81.6562 6.84351 83.7734 6.84351 86.3438C6.84351 88.9141 8.96071 91.0312 11.531 91.0312C14.1013 91.0312 16.2185 88.9141 16.2185 86.3438C16.2185 83.7734 14.1013 81.6562 11.531 81.6562ZM11.531 84.7812C12.4138 84.7812 13.0935 85.4609 13.0935 86.3438C13.0935 87.2266 12.4138 87.9062 11.531 87.9062C10.6482 87.9062 9.96851 87.2266 9.96851 86.3438C9.96851 85.4609 10.6482 84.7812 11.531 84.7812Z" fill="#2C332C"/>
<path d="M2.15601 75.4062C1.29663 75.4062 0.593506 76.1055 0.593506 76.9688V95.7188C0.593506 96.582 1.29663 97.2812 2.15601 97.2812H81.844C82.7073 97.2812 83.4065 96.582 83.4065 95.7188V76.9688C83.4065 76.1055 82.7073 75.4062 81.844 75.4062H2.15601ZM3.71851 78.5312H80.2805V94.1562H3.71851V78.5312Z" fill="#2C332C"/>
<path d="M72.469 81.6562C75.0393 81.6562 77.1565 83.7734 77.1565 86.3438C77.1565 88.9141 75.0393 91.0312 72.469 91.0312C69.8987 91.0312 67.7815 88.9141 67.7815 86.3438C67.7815 83.7734 69.8987 81.6562 72.469 81.6562ZM72.469 84.7812C71.5862 84.7812 70.9065 85.4609 70.9065 86.3438C70.9065 87.2266 71.5862 87.9062 72.469 87.9062C73.3518 87.9062 74.0315 87.2266 74.0315 86.3438C74.0315 85.4609 73.3518 84.7812 72.469 84.7812Z" fill="#2C332C"/>
<path d="M2.15601 50.4062C1.29663 50.4062 0.593506 51.1055 0.593506 51.9688V70.7188C0.593506 71.582 1.29663 72.2812 2.15601 72.2812H81.844C82.7073 72.2812 83.4065 71.582 83.4065 70.7188V51.9688C83.4065 51.1055 82.7073 50.4062 81.844 50.4062H2.15601ZM3.71851 53.5312H80.2805V69.1562H3.71851V53.5312Z" fill="#2C332C"/>
<path d="M5.28101 69.1563C4.42163 69.1563 3.71851 69.8555 3.71851 70.7188V76.9688C3.71851 77.3828 3.88648 77.7813 4.17945 78.0743C4.47242 78.3672 4.86695 78.5313 5.28105 78.5313C5.69902 78.5313 6.09355 78.3672 6.38655 78.0743C6.67955 77.7813 6.84358 77.3829 6.84358 76.9688V70.7188C6.84358 70.3047 6.67952 69.9102 6.38655 69.6133C6.09358 69.3203 5.69901 69.1563 5.28101 69.1563Z" fill="#2C332C"/>
<path d="M78.719 69.1563C77.8596 69.1563 77.1565 69.8555 77.1565 70.7188V76.9688C77.1565 77.3828 77.3245 77.7813 77.6174 78.0743C77.9104 78.3672 78.3049 78.5313 78.719 78.5313C79.137 78.5313 79.5315 78.3672 79.8245 78.0743C80.1175 77.7813 80.2816 77.3829 80.2816 76.9688V70.7188C80.2816 70.3047 80.1175 69.9102 79.8245 69.6133C79.5316 69.3203 79.137 69.1563 78.719 69.1563Z" fill="#2C332C"/>
<path d="M36.5471 16.3438V19.4688H41.2346V16.3438H36.5471Z" fill="#2C332C"/>
<path d="M15.0471 42.9062C14.1877 42.9062 13.4846 43.6055 13.4846 44.4688V50.4062H16.6096V46.0312H25.8752V42.9062H15.0471Z" fill="#2C332C"/>
<path d="M58.1289 42.9062V46.0312H67.3945V50.4062H70.5195V44.4688H70.5156C70.5156 43.6055 69.8164 42.9062 68.9531 42.9062H58.1289Z" fill="#2C332C"/>
<path d="M18.3521 16.3438V19.4688H23.0396V16.3438H18.3521Z" fill="#2C332C"/>
<path d="M14.4691 0.718831C14.0512 0.714925 13.6488 0.875081 13.3519 1.17195C13.0551 1.46492 12.8871 1.86336 12.8871 2.28135V3.47665L12.2699 4.71105H12.2738C12.1644 4.92589 12.1058 5.16417 12.1058 5.40636V6.96886C12.1058 7.21105 12.1644 7.44933 12.2738 7.66417L12.891 8.89857V16.8517C12.891 19.4494 12.473 22.0353 11.6449 24.5001L7.05509 38.1601C6.20743 40.6796 5.55899 43.2656 5.12539 45.8828C4.90664 47.1914 4.74258 48.5039 4.6293 49.8242C4.57461 50.4843 4.53164 51.1523 4.50039 51.8125C4.48476 52.2265 4.6332 52.6289 4.91055 52.9375C5.1918 53.2422 5.58243 53.4218 5.99645 53.4414C6.85973 53.4804 7.58625 52.8125 7.62535 51.9531C7.65269 51.332 7.69566 50.7109 7.74644 50.0898C7.85191 48.8515 8.00816 47.6171 8.21128 46.3906C8.61753 43.9375 9.21908 41.5156 10.0121 39.1523L14.6019 25.4923C15.5355 22.7071 16.0121 19.7853 16.0121 16.8517V8.53138C16.0121 8.28919 15.9574 8.05091 15.848 7.83607L15.2308 6.60167V5.77355L15.848 4.53915C15.9535 4.32821 16.0082 4.09774 16.0082 3.86337L18.3441 3.88681H18.3753L20.7073 3.86337C20.7112 4.09775 20.762 4.32821 20.8675 4.53915L21.4847 5.77355V6.60167L20.8675 7.83607C20.7581 8.05091 20.7034 8.28919 20.7034 8.53138V16.8517C20.7034 19.7892 21.1839 22.7111 22.1214 25.4923L24.4144 32.3204L25.5628 35.7384L25.5589 35.7423C25.8363 36.5587 26.7191 36.9962 27.5394 36.7228C28.3558 36.4493 28.7933 35.5626 28.5199 34.7462L27.3715 31.3282L25.0746 24.5001C24.2465 22.0353 23.8246 19.4532 23.8246 16.8517V8.89856L24.4418 7.66416C24.5512 7.44932 24.6058 7.21104 24.6058 6.96885V5.40635C24.6058 5.16416 24.5512 4.92588 24.4418 4.71104L23.8246 3.47664V2.28134C23.8246 1.86337 23.6605 1.46493 23.3637 1.17194C23.0668 0.878948 22.6683 0.714908 22.2504 0.718818L18.3559 0.761787L14.4691 0.718831Z" fill="#2C332C"/>
<path d="M60.9729 16.3438V19.4688H65.6604V16.3438H60.9729Z" fill="#2C332C"/>
<path d="M61.7579 0.71884C61.3399 0.714934 60.9376 0.87509 60.6407 1.17196C60.3438 1.46493 60.1798 1.86337 60.1798 2.28136V3.47666L59.5626 4.71106C59.4532 4.9259 59.3985 5.16418 59.3985 5.40637V6.96887C59.3985 7.21106 59.4532 7.44934 59.5626 7.66418L60.1798 8.89858V16.8517C60.1798 19.4494 59.7579 22.0353 58.9298 24.5001L56.6329 31.3282L55.4845 34.7462C55.211 35.5626 55.6485 36.4493 56.4688 36.7228C57.2853 36.9962 58.168 36.5587 58.4454 35.7423L59.5938 32.3243L61.8946 25.4962C62.8282 22.711 63.3048 19.7892 63.3048 16.8556V8.53141C63.3009 8.28922 63.2462 8.05094 63.1369 7.8361L62.5197 6.6017V5.77358L63.1369 4.53918C63.2423 4.32824 63.297 4.09777 63.297 3.8634L65.629 3.88684H65.6642L67.9962 3.8634C68.0001 4.09778 68.0509 4.32824 68.1563 4.53918L68.7735 5.77358V6.6017L68.1563 7.8361C68.047 8.05094 67.9923 8.28922 67.9923 8.53141V16.8517C67.9923 19.7892 68.4649 22.7111 69.4025 25.4923L73.9923 39.1523C74.7853 41.5156 75.3907 43.9414 75.797 46.3906C76.0001 47.6172 76.1564 48.8515 76.2618 50.0898C76.3126 50.7109 76.3517 51.3281 76.379 51.9531C76.3946 52.3672 76.5782 52.7578 76.8868 53.0351C77.1915 53.3164 77.5978 53.4609 78.0118 53.4414C78.8751 53.4023 79.5391 52.6718 79.504 51.8125C79.4728 51.1484 79.4337 50.4844 79.3751 49.8242C79.2618 48.5039 79.0978 47.1875 78.879 45.8828C78.4454 43.2656 77.8048 40.6836 76.9571 38.1601L72.3673 24.5001C71.5392 22.0353 71.1173 19.4532 71.1173 16.8517V8.89856L71.7345 7.66416H71.7306C71.84 7.44932 71.8947 7.21104 71.8986 6.96885V5.40635C71.8947 5.16416 71.84 4.92588 71.7306 4.71104L71.1134 3.47664V2.28134H71.1173C71.1173 1.86337 70.9494 1.46493 70.6525 1.17194C70.3556 0.87506 69.9533 0.71491 69.5353 0.71882L65.6486 0.761789L61.7579 0.71884Z" fill="#2C332C"/>
</svg>
